<svg width="14" height="14" viewBox="0 0 14 14" fill="none" xmlns="http://www.w3.org/2000/svg">
<g id="Iconly/Bold/Star">
<g id="Star">
<path id="Star_2" d="M10.4523 8.35337C10.3012 8.49979 10.2318 8.71154 10.2662 8.91921L10.7848 11.7892C10.8285 12.0325 10.7259 12.2786 10.5223 12.4192C10.3228 12.565 10.0574 12.5825 9.83977 12.4659L7.25619 11.1184C7.16635 11.0705 7.0666 11.0449 6.96452 11.042H6.80644C6.7516 11.0501 6.69794 11.0676 6.64894 11.0945L4.06477 12.4484C3.93702 12.5125 3.79235 12.5353 3.6506 12.5125C3.30527 12.4472 3.07485 12.1182 3.13144 11.7711L3.6506 8.90112C3.68502 8.69171 3.6156 8.47879 3.46452 8.33004L1.3581 6.28837C1.18194 6.11746 1.12069 5.86079 1.20119 5.62921C1.27935 5.39821 1.47885 5.22962 1.71977 5.19171L4.61894 4.77112C4.83944 4.74837 5.0331 4.61421 5.13227 4.41587L6.40977 1.79671C6.4401 1.73837 6.47919 1.68471 6.52644 1.63921L6.57894 1.59837C6.60635 1.56804 6.63785 1.54296 6.67285 1.52254L6.73644 1.49921L6.8356 1.45837H7.08119C7.30052 1.48112 7.4936 1.61237 7.59452 1.80837L8.88894 4.41587C8.98227 4.60662 9.16369 4.73904 9.3731 4.77112L12.2723 5.19171C12.5173 5.22671 12.722 5.39587 12.8031 5.62921C12.8795 5.86312 12.8136 6.11979 12.6339 6.28837L10.4523 8.35337Z" fill="#FFAC37"/>
</g>
</g>
</svg>
